<svg xmlns="http://www.w3.org/2000/svg" xmlns:xlink="http://www.w3.org/1999/xlink" viewBox="0 0 595.28 841.89"><defs><style>.cls-1{fill:url(#Безымянный_градиент_8);}.cls-2{fill:#fff;}.cls-3{fill:url(#Безымянный_градиент_8-2);}.cls-4{fill:none;stroke-miterlimit:10;stroke-width:10px;stroke:url(#Безымянный_градиент_8-3);}</style><linearGradient id="Безымянный_градиент_8" x1="113.79" y1="237.1" x2="481.49" y2="604.79" gradientUnits="userSpaceOnUse"><stop offset="0" stop-color="#312783"/><stop offset="1" stop-color="#1d71b8"/></linearGradient><linearGradient id="Безымянный_градиент_8-2" x1="302.55" y1="323.24" x2="449.12" y2="469.81" xlink:href="#Безымянный_градиент_8"/><linearGradient id="Безымянный_градиент_8-3" x1="110.12" y1="233.12" x2="484.88" y2="607.88" xlink:href="#Безымянный_градиент_8"/></defs><g id="Слой_1" data-name="Слой 1"><circle class="cls-1" cx="297.64" cy="420.95" r="260"/></g><g id="Слой_2" data-name="Слой 2"><polyline class="cls-2" points="156.72 201.87 120.85 229.73 78.97 279.58 54.24 328.52 37.64 387.53 39.45 452.46 47.71 492.89 80.85 564.28 136.76 626.12 182.01 653.51 257.98 677.52 315.71 679.87 349.56 671.44 349.56 588.1 276.02 588.1 282.68 567.13 470.29 567.13 480.28 598.34 484.5 601.13 511.94 567.88 539.82 516 553.48 456.82 551.49 443.21 480.2 242.56 473.27 228.91 447.69 208.24 385.12 178 314.76 161.53 305.64 165.62 154.21 581.54 154.21 209.27 156.72 201.87"/><polygon class="cls-3" points="308.07 475.9 443.03 475.9 385.84 296.81 384.24 291.09 382.71 284.81 381.31 278.15 380.13 271.59 379.63 268.26 378.94 263.4 378.19 257.09 377.57 251.13 374.66 251.13 374.09 257.15 373.31 263.31 372.53 268.34 371.99 271.47 370.6 278.26 369.01 284.97 367.38 290.91 365.4 297.38 308.07 475.9"/></g><g id="Слой_3" data-name="Слой 3"><circle class="cls-4" cx="297.5" cy="420.5" r="260"/></g></svg>